# xmcd
# 
# Track frame offsets:
#     182
#     3165
#     13590
#     18020
#     27195
#     29977
#     38052
#     41190
#     49347
#     55010
#     57677
#     60177
#     65640
#     77505
#     79815
#     102277
#     107372
#     120090
#     123917
#     129890
#     137907
#     145487
#     148787
#     152737
# 
# Disc length: 2180
# 
# Revision: 22
# Processed by: cddbd v1.5.2PL0 Copyright (c) Steve Scherf et al.
# Submitted via: fre:ac v1.0.27
# 
DISCID=3e088218
DTITLE=Chopin - 24 Preludes op. 28
DYEAR=1975
DGENRE=Classique
TTITLE0=Nr. 1 C-dur - Agitato
TTITLE1=Nr. 2 a-moll - Lento
TTITLE2=Nr. 3 G-dur - Vivace
TTITLE3=Nr. 4 e-moll - Largo
TTITLE4=Nr. 5 D-dur - Allegro molto
TTITLE5=Nr. 6 h-moll - Lento assai
TTITLE6=Nr. 7 A-dur - Andantino
TTITLE7=Nr. 8 fis-moll - Molto agitato
TTITLE8=Nr. 9 E-dur - Largo
TTITLE9=Nr. 10 cis-moll - Allegro molto
TTITLE10=Nr. 11 H-dur - Vivace
TTITLE11=Nr. 12 gis-moll - Presto
TTITLE12=Nr. 13 Fis-dur - Lento
TTITLE13=Nr. 14 es-moll - Allegro
TTITLE14=Nr. 15 Des-dur - Sostenuto
TTITLE15=Nr. 16 b-moll - Presto con fuoco
TTITLE16=Nr. 17 As-dur - Allegretto
TTITLE17=Nr. 18 f-moll - Allegro molto
TTITLE18=Nr. 19 Es-dur - Vivace
TTITLE19=Nr. 20 c-moll - Largo
TTITLE20=Nr. 21 B-dur - Cantabile
TTITLE21=Nr. 22 g-moll - Molto agitato
TTITLE22=Nr. 23 F-dur - Moderato
TTITLE23=Nr. 24 d-moll - Allegro appassionato
EXTD=Deutsche Grammophon 413 796-2 GH ADD\nMaurizio Pollini - pf\n YEAR: 1975
EXTT0=
EXTT1=
EXTT2=
EXTT3=
EXTT4=
EXTT5=
EXTT6=
EXTT7=
EXTT8=
EXTT9=
EXTT10=
EXTT11=
EXTT12=
EXTT13=
EXTT14=
EXTT15=
EXTT16=
EXTT17=
EXTT18=
EXTT19=
EXTT20=
EXTT21=
EXTT22=
EXTT23=
PLAYORDER=
